<?xml version="1.0" encoding="UTF-8"?>
<!DOCTYPE svg PUBLIC "-//W3C//DTD SVG 1.1//EN" "http://www.w3.org/Graphics/SVG/1.1/DTD/svg11.dtd">
<svg xmlns="http://www.w3.org/2000/svg" version="1.1" width="500px" height="110px" style="shape-rendering:geometricPrecision; text-rendering:geometricPrecision; image-rendering:optimizeQuality; fill-rule:evenodd; clip-rule:evenodd" xmlns:xlink="http://www.w3.org/1999/xlink">
<g><path style="opacity:1" fill="#c76dfd" d="M 68.5,3.5 C 48.069,8.60035 28.069,14.6004 8.5,21.5C 5.60267,20.871 2.936,19.871 0.5,18.5C 19.5267,13.1593 38.5267,7.65929 57.5,2C 61.4773,1.12055 65.1439,1.62055 68.5,3.5 Z"/></g>
<g><path style="opacity:1" fill="#b853f7" d="M 68.5,3.5 C 87.1516,8.07587 105.485,13.4092 123.5,19.5C 123.389,20.1174 123.056,20.6174 122.5,21C 124.256,21.2022 125.922,21.7022 127.5,22.5C 107.732,28.9217 87.7316,34.5884 67.5,39.5C 62.4302,37.0325 57.0969,35.3659 51.5,34.5C 37.3062,29.9934 22.9729,25.6601 8.5,21.5C 28.069,14.6004 48.069,8.60035 68.5,3.5 Z"/></g>
<g><path style="opacity:0.199" fill="#c9c9c9" d="M 214.5,26.5 C 216.473,25.8373 218.639,25.5039 221,25.5C 223.61,25.5332 225.777,26.1999 227.5,27.5C 223.265,26.564 218.931,26.2307 214.5,26.5 Z"/></g>
<g><path style="opacity:0.2" fill="#cbcbcb" d="M 410.5,26.5 C 415.015,25.1876 419.682,25.1876 424.5,26.5C 424.376,27.1067 424.043,27.44 423.5,27.5C 419.366,26.5151 415.032,26.1818 410.5,26.5 Z"/></g>
<g><path style="opacity:0.2" fill="#c8c8c8" d="M 478.5,26.5 C 474.4,26.2367 470.4,26.5701 466.5,27.5C 468.048,26.2057 470.048,25.5391 472.5,25.5C 474.696,25.5046 476.696,25.838 478.5,26.5 Z"/></g>
<g><path style="opacity:1" fill="#161616" d="M 167.5,25.5 C 178.555,25.1209 189.555,25.6209 200.5,27C 206.157,28.7829 209.657,32.6162 211,38.5C 214.396,53.5802 208.563,62.0802 193.5,64C 188.511,64.4993 183.511,64.6659 178.5,64.5C 178.5,70.8333 178.5,77.1667 178.5,83.5C 174.833,83.5 171.167,83.5 167.5,83.5C 167.5,64.1667 167.5,44.8333 167.5,25.5 Z M 178.5,36.5 C 183.844,36.334 189.177,36.5006 194.5,37C 199.224,39.4353 200.724,43.2686 199,48.5C 198.535,49.9308 197.701,51.0975 196.5,52C 190.593,53.3608 184.593,53.8608 178.5,53.5C 178.5,47.8333 178.5,42.1667 178.5,36.5 Z"/></g>
<g><path style="opacity:1" fill="#1d1d1d" d="M 238.5,81.5 C 234.399,82.7908 230.399,82.7908 226.5,81.5C 228.421,76.49 230.755,71.6567 233.5,67C 226.753,53.6745 220.42,40.1745 214.5,26.5C 218.931,26.2307 223.265,26.564 227.5,27.5C 231.557,36.1416 235.723,44.8082 240,53.5C 244.167,44.5 248.333,35.5 252.5,26.5C 256.795,25.3391 261.129,25.1725 265.5,26C 256.869,44.7596 247.869,63.2596 238.5,81.5 Z"/></g>
<g><path style="opacity:0.302" fill="#bdbdbd" d="M 296.5,26.5 C 287.833,26.5 279.167,26.5 270.5,26.5C 270.5,45.1667 270.5,63.8333 270.5,82.5C 279.833,82.5 289.167,82.5 298.5,82.5C 289.014,83.4938 279.348,83.8271 269.5,83.5C 269.5,64.1667 269.5,44.8333 269.5,25.5C 278.682,25.1734 287.682,25.5067 296.5,26.5 Z"/></g>
<g><path style="opacity:1" fill="#0f0f0f" d="M 296.5,26.5 C 307.972,28.7391 312.472,35.7391 310,47.5C 308.833,49.3333 307.667,51.1667 306.5,53C 314.364,60.0454 315.531,68.2121 310,77.5C 306.935,80.9493 303.102,82.616 298.5,82.5C 289.167,82.5 279.833,82.5 270.5,82.5C 270.5,63.8333 270.5,45.1667 270.5,26.5C 279.167,26.5 287.833,26.5 296.5,26.5 Z M 281.5,36.5 C 286.628,36.1115 291.628,36.6115 296.5,38C 299.364,41.6238 299.031,44.7905 295.5,47.5C 290.833,47.5 286.167,47.5 281.5,47.5C 281.5,43.8333 281.5,40.1667 281.5,36.5 Z M 281.5,58.5 C 286.511,58.3341 291.511,58.5007 296.5,59C 303.059,63.2451 303.059,67.5784 296.5,72C 291.511,72.4993 286.511,72.6659 281.5,72.5C 281.5,67.8333 281.5,63.1667 281.5,58.5 Z"/></g>
<g><path style="opacity:1" fill="#101010" d="M 320.5,26.5 C 324.167,26.5 327.833,26.5 331.5,26.5C 331.333,38.8378 331.5,51.1712 332,63.5C 333.481,62.5291 334.315,61.1958 334.5,59.5C 341.092,47.9757 348.425,36.9757 356.5,26.5C 360.167,26.5 363.833,26.5 367.5,26.5C 367.5,45.1667 367.5,63.8333 367.5,82.5C 363.833,82.5 360.167,82.5 356.5,82.5C 356.667,70.8286 356.5,59.1619 356,47.5C 348.085,58.9955 340.418,70.6622 333,82.5C 328.934,83.4637 324.767,83.797 320.5,83.5C 320.5,64.5 320.5,45.5 320.5,26.5 Z"/></g>
<g><path style="opacity:0.302" fill="#b4b4b4" d="M 320.5,26.5 C 324.298,25.5166 328.298,25.1832 332.5,25.5C 332.333,37.1714 332.5,48.8381 333,60.5C 333.383,59.944 333.883,59.6107 334.5,59.5C 334.315,61.1958 333.481,62.5291 332,63.5C 331.5,51.1712 331.333,38.8378 331.5,26.5C 327.833,26.5 324.167,26.5 320.5,26.5 Z"/></g>
<g><path style="opacity:0.102" fill="#dfdfdf" d="M 356.5,26.5 C 360.298,25.5166 364.298,25.1832 368.5,25.5C 368.5,44.8333 368.5,64.1667 368.5,83.5C 364.298,83.8168 360.298,83.4834 356.5,82.5C 360.167,82.5 363.833,82.5 367.5,82.5C 367.5,63.8333 367.5,45.1667 367.5,26.5C 363.833,26.5 360.167,26.5 356.5,26.5 Z"/></g>
<g><path style="opacity:1" fill="#131313" d="M 378.5,26.5 C 381.833,26.5 385.167,26.5 388.5,26.5C 388.169,34.1955 388.503,41.8622 389.5,49.5C 390.107,49.3764 390.44,49.0431 390.5,48.5C 390.5,47.8333 390.833,47.5 391.5,47.5C 393.914,46.0892 395.581,44.0892 396.5,41.5C 399.167,38.1667 402.167,35.1667 405.5,32.5C 407.914,31.0892 409.581,29.0892 410.5,26.5C 415.032,26.1818 419.366,26.5151 423.5,27.5C 416.374,35.7959 409.041,43.9625 401.5,52C 409.334,61.9974 417.334,71.8308 425.5,81.5C 420.934,82.7973 416.267,82.7973 411.5,81.5C 405.497,75.3527 399.83,68.8527 394.5,62C 392.565,62.0579 390.898,62.8912 389.5,64.5C 388.51,70.31 388.177,76.31 388.5,82.5C 385.167,82.5 381.833,82.5 378.5,82.5C 378.5,63.8333 378.5,45.1667 378.5,26.5 Z"/></g>
<g><path style="opacity:0.6" fill="#7f7f7f" d="M 378.5,26.5 C 381.962,25.5184 385.629,25.185 389.5,25.5C 389.175,33.3516 389.508,41.0182 390.5,48.5C 390.44,49.0431 390.107,49.3764 389.5,49.5C 388.503,41.8622 388.169,34.1955 388.5,26.5C 385.167,26.5 381.833,26.5 378.5,26.5 Z"/></g>
<g><path style="opacity:1" fill="#0f0f0f" d="M 466.5,27.5 C 470.4,26.5701 474.4,26.2367 478.5,26.5C 478.5,45.1667 478.5,63.8333 478.5,82.5C 474.833,82.5 471.167,82.5 467.5,82.5C 467.667,70.1622 467.5,57.8288 467,45.5C 466.487,46.5266 465.987,47.5266 465.5,48.5C 458.898,60.053 451.564,71.053 443.5,81.5C 439.6,82.4299 435.6,82.7633 431.5,82.5C 431.5,63.5 431.5,44.5 431.5,25.5C 435.167,25.5 438.833,25.5 442.5,25.5C 442.333,37.5046 442.5,49.5046 443,61.5C 450.609,49.9263 458.442,38.593 466.5,27.5 Z"/></g>
<g><path style="opacity:0.655" fill="#909090" d="M 410.5,26.5 C 409.581,29.0892 407.914,31.0892 405.5,32.5C 406.419,29.9108 408.086,27.9108 410.5,26.5 Z"/></g>
<g><path style="opacity:1" fill="#6bdebe" d="M -0.5,18.5 C -0.166667,18.5 0.166667,18.5 0.5,18.5C 2.936,19.871 5.60267,20.871 8.5,21.5C 22.9729,25.6601 37.3062,29.9934 51.5,34.5C 49.1516,34.3305 46.8183,33.9971 44.5,33.5C 29.5142,36.6305 14.5142,39.6305 -0.5,42.5C -0.5,34.5 -0.5,26.5 -0.5,18.5 Z"/></g>
<g><path style="opacity:1" fill="#44d6ad" d="M 51.5,34.5 C 57.0969,35.3659 62.4302,37.0325 67.5,39.5C 67.5,39.8333 67.5,40.1667 67.5,40.5C 44.6247,43.8085 21.958,48.1418 -0.5,53.5C -0.5,49.8333 -0.5,46.1667 -0.5,42.5C 14.5142,39.6305 29.5142,36.6305 44.5,33.5C 46.8183,33.9971 49.1516,34.3305 51.5,34.5 Z"/></g>
<g><path style="opacity:1" fill="#9738d1" d="M 123.5,19.5 C 131.275,21.6428 136.441,26.6428 139,34.5C 141.876,42.1741 140.376,48.8408 134.5,54.5C 136.278,56.264 137.611,58.264 138.5,60.5C 136.932,59.5269 135.265,59.3603 133.5,60C 125.288,62.1101 117.288,64.7768 109.5,68C 93.426,71.8519 77.426,76.0186 61.5,80.5C 61.5,77.8333 61.5,75.1667 61.5,72.5C 72.5397,74.1656 78.2064,69.499 78.5,58.5C 78.6448,54.7982 77.6448,51.4649 75.5,48.5C 73.7191,44.93 71.0525,42.2633 67.5,40.5C 67.5,40.1667 67.5,39.8333 67.5,39.5C 87.7316,34.5884 107.732,28.9217 127.5,22.5C 125.922,21.7022 124.256,21.2022 122.5,21C 123.056,20.6174 123.389,20.1174 123.5,19.5 Z"/></g>
<g><path style="opacity:1" fill="#27d0a0" d="M 67.5,40.5 C 71.0525,42.2633 73.7191,44.93 75.5,48.5C 50.1176,53.7096 24.7842,59.0429 -0.5,64.5C -0.5,60.8333 -0.5,57.1667 -0.5,53.5C 21.958,48.1418 44.6247,43.8085 67.5,40.5 Z"/></g>
<g><path style="opacity:0.675" fill="#8c8c8c" d="M 396.5,41.5 C 395.581,44.0892 393.914,46.0892 391.5,47.5C 392.419,44.9108 394.086,42.9108 396.5,41.5 Z"/></g>
<g><path style="opacity:0.102" fill="#dfdfdf" d="M 478.5,82.5 C 474.702,83.4834 470.702,83.8168 466.5,83.5C 466.828,71.6547 466.495,59.988 465.5,48.5C 465.987,47.5266 466.487,46.5266 467,45.5C 467.5,57.8288 467.667,70.1622 467.5,82.5C 471.167,82.5 474.833,82.5 478.5,82.5 Z"/></g>
<g><path style="opacity:0.333" fill="#979797" d="M 281.5,36.5 C 281.5,40.1667 281.5,43.8333 281.5,47.5C 286.167,47.5 290.833,47.5 295.5,47.5C 290.695,48.4872 285.695,48.8205 280.5,48.5C 280.183,44.2984 280.517,40.2984 281.5,36.5 Z"/></g>
<g><path style="opacity:1" fill="#0ec992" d="M 75.5,48.5 C 77.6448,51.4649 78.6448,54.7982 78.5,58.5C 78.2064,69.499 72.5397,74.1656 61.5,72.5C 60.5051,83.988 60.1717,95.6547 60.5,107.5C 40.1157,102.039 19.7823,96.3722 -0.5,90.5C -0.5,81.8333 -0.5,73.1667 -0.5,64.5C 24.7842,59.0429 50.1176,53.7096 75.5,48.5 Z"/></g>
<g><path style="opacity:0.6" fill="#818181" d="M 389.5,64.5 C 389.5,70.8333 389.5,77.1667 389.5,83.5C 385.629,83.815 381.962,83.4816 378.5,82.5C 381.833,82.5 385.167,82.5 388.5,82.5C 388.177,76.31 388.51,70.31 389.5,64.5 Z"/></g>
<g><path style="opacity:1" fill="#ba53f9" d="M 138.5,60.5 C 141.848,72.1629 138.181,81.1629 127.5,87.5C 127.265,86.9033 126.765,86.5699 126,86.5C 104.58,92.641 83.2466,98.9743 62,105.5C 61.5003,97.1733 61.3336,88.84 61.5,80.5C 77.426,76.0186 93.426,71.8519 109.5,68C 117.288,64.7768 125.288,62.1101 133.5,60C 135.265,59.3603 136.932,59.5269 138.5,60.5 Z"/></g>
<g><path style="opacity:0.2" fill="#d0d0d0" d="M 226.5,81.5 C 230.399,82.7908 234.399,82.7908 238.5,81.5C 236.777,82.8001 234.61,83.4668 232,83.5C 229.833,83.1667 227.667,82.8333 225.5,82.5C 225.624,81.8933 225.957,81.56 226.5,81.5 Z"/></g>
<g><path style="opacity:0.199" fill="#d0d0d0" d="M 411.5,81.5 C 416.267,82.7973 420.934,82.7973 425.5,81.5C 426.043,81.56 426.376,81.8933 426.5,82.5C 424,82.8333 421.5,83.1667 419,83.5C 416.071,83.4752 413.571,82.8086 411.5,81.5 Z"/></g>
<g><path style="opacity:0.2" fill="#cdcdcd" d="M 443.5,81.5 C 441.952,82.7943 439.952,83.4609 437.5,83.5C 435.304,83.4954 433.304,83.162 431.5,82.5C 435.6,82.7633 439.6,82.4299 443.5,81.5 Z"/></g>
<g><path style="opacity:0.999" fill="#c484f7" d="M 61.5,72.5 C 61.5,75.1667 61.5,77.8333 61.5,80.5C 61.3336,88.84 61.5003,97.1733 62,105.5C 83.2466,98.9743 104.58,92.641 126,86.5C 126.765,86.5699 127.265,86.9033 127.5,87.5C 125.615,89.3115 123.281,90.4782 120.5,91C 100.303,97.1415 80.303,102.641 60.5,107.5C 60.1717,95.6547 60.5051,83.988 61.5,72.5 Z"/></g>
</svg>
