<?xml version="1.0" encoding="UTF-8"?>
<!DOCTYPE svg PUBLIC "-//W3C//DTD SVG 1.1//EN" "http://www.w3.org/Graphics/SVG/1.1/DTD/svg11.dtd">
<svg xmlns="http://www.w3.org/2000/svg" version="1.1" width="511px" height="99px" style="shape-rendering:geometricPrecision; text-rendering:geometricPrecision; image-rendering:optimizeQuality; fill-rule:evenodd; clip-rule:evenodd" xmlns:xlink="http://www.w3.org/1999/xlink">
<g><path style="opacity:1" fill="#fcfafb" d="M -0.5,-0.5 C 15.5,-0.5 31.5,-0.5 47.5,-0.5C 31.7465,6.9743 16.0799,14.641 0.5,22.5C 0.166667,22.5 -0.166667,22.5 -0.5,22.5C -0.5,14.8333 -0.5,7.16667 -0.5,-0.5 Z"/></g>
<g><path style="opacity:1" fill="#fcfcfc" d="M 50.5,-0.5 C 203.833,-0.5 357.167,-0.5 510.5,-0.5C 510.5,8.16667 510.5,16.8333 510.5,25.5C 506.486,25.3345 502.486,25.5012 498.5,26C 489,37.5 479.5,49 470,60.5C 469.5,48.8381 469.333,37.1714 469.5,25.5C 465.833,25.5 462.167,25.5 458.5,25.5C 458.5,42.8333 458.5,60.1667 458.5,77.5C 462.182,77.6653 465.848,77.4986 469.5,77C 479.333,65.1667 489.167,53.3333 499,41.5C 499.5,53.4954 499.667,65.4954 499.5,77.5C 503.167,77.5 506.833,77.5 510.5,77.5C 510.5,84.5 510.5,91.5 510.5,98.5C 356.167,98.5 201.833,98.5 47.5,98.5C 66.0204,90.3641 84.3538,81.5308 102.5,72C 108.009,62.921 107.676,54.0877 101.5,45.5C 107.405,37.1788 107.905,28.5121 103,19.5C 101.629,17.9586 100.129,16.6253 98.5,15.5C 95.4536,12.6433 91.7869,10.81 87.5,10C 81.189,8.33871 74.8556,6.83871 68.5,5.5C 62.5,3.5 56.5,1.5 50.5,-0.5 Z"/></g>
<g><path style="opacity:1" fill="#670fb8" d="M 47.5,-0.5 C 48.5,-0.5 49.5,-0.5 50.5,-0.5C 56.5,1.5 62.5,3.5 68.5,5.5C 66.4234,7.3606 64.0901,7.69393 61.5,6.5C 58.9365,6.73703 58.9365,7.23703 61.5,8C 59.5273,8.49546 57.5273,8.66212 55.5,8.5C 55.5,9.5 55.5,10.5 55.5,11.5C 52.7531,11.1866 50.0865,11.52 47.5,12.5C 45.3932,14.8868 42.7265,16.2201 39.5,16.5C 39.5,17.5 39.5,18.5 39.5,19.5C 32.5542,22.0935 25.2209,23.9268 17.5,25C 21.0449,25.7171 24.5449,25.5504 28,24.5C 28.5,24.8333 29,25.1667 29.5,25.5C 28.624,26.2508 27.624,26.7508 26.5,27C 28.74,27.977 31.0733,28.477 33.5,28.5C 33.5,29.5 33.5,30.5 33.5,31.5C 22.5725,28.201 11.5725,25.201 0.5,22.5C 16.0799,14.641 31.7465,6.9743 47.5,-0.5 Z"/></g>
<g><path style="opacity:1" fill="#7e14d1" d="M 68.5,5.5 C 74.8556,6.83871 81.189,8.33871 87.5,10C 91.7869,10.81 95.4536,12.6433 98.5,15.5C 96.6213,14.6013 94.6213,14.6013 92.5,15.5C 89.2577,15.2167 88.9244,14.3834 91.5,13C 88.1103,12.7537 84.777,12.2537 81.5,11.5C 81.891,12.7185 81.2244,13.5518 79.5,14C 82.1922,14.4298 84.8589,14.2631 87.5,13.5C 87.7733,15.451 87.1066,16.951 85.5,18C 80.9364,19.475 76.2697,20.3084 71.5,20.5C 70.174,24.1484 67.5073,26.4817 63.5,27.5C 60.9135,28.48 58.2469,28.8134 55.5,28.5C 55.6399,30.1238 54.9733,31.2904 53.5,32C 56.0847,35.8374 55.7514,36.1708 52.5,33C 48.0785,32.8871 47.7451,33.7204 51.5,35.5C 50.7573,36.1818 50.0906,36.8485 49.5,37.5C 44.5819,34.5255 39.2486,32.5255 33.5,31.5C 33.5,30.5 33.5,29.5 33.5,28.5C 31.0733,28.477 28.74,27.977 26.5,27C 27.624,26.7508 28.624,26.2508 29.5,25.5C 29,25.1667 28.5,24.8333 28,24.5C 24.5449,25.5504 21.0449,25.7171 17.5,25C 25.2209,23.9268 32.5542,22.0935 39.5,19.5C 39.5,18.5 39.5,17.5 39.5,16.5C 42.7265,16.2201 45.3932,14.8868 47.5,12.5C 50.0865,11.52 52.7531,11.1866 55.5,11.5C 55.5,10.5 55.5,9.5 55.5,8.5C 57.5273,8.66212 59.5273,8.49546 61.5,8C 58.9365,7.23703 58.9365,6.73703 61.5,6.5C 64.0901,7.69393 66.4234,7.3606 68.5,5.5 Z"/></g>
<g><path style="opacity:1" fill="#060606" d="M 191.5,25.5 C 202.111,29.0461 206.278,36.3795 204,47.5C 202.5,54.3333 198.333,58.5 191.5,60C 182.84,60.4998 174.173,60.6664 165.5,60.5C 165.5,66.1667 165.5,71.8333 165.5,77.5C 161.833,77.5 158.167,77.5 154.5,77.5C 154.5,60.1667 154.5,42.8333 154.5,25.5C 166.833,25.5 179.167,25.5 191.5,25.5 Z"/></g>
<g><path style="opacity:1" fill="#070707" d="M 207.5,25.5 C 211.884,25.1744 216.217,25.5078 220.5,26.5C 225.804,34.9689 231.304,43.3022 237,51.5C 242.292,43.0833 247.459,34.5833 252.5,26C 256.541,25.1735 260.541,25.3401 264.5,26.5C 254.374,43.2508 244.374,60.0841 234.5,77C 230.5,77.6667 226.5,77.6667 222.5,77C 225.293,72.5825 227.959,68.0825 230.5,63.5C 222.779,50.7987 215.113,38.132 207.5,25.5 Z"/></g>
<g><path style="opacity:1" fill="#030303" d="M 271.5,25.5 C 285.171,25.3334 298.837,25.5001 312.5,26C 322.789,32.3994 324.122,40.3994 316.5,50C 325.459,58.0018 325.793,66.3351 317.5,75C 315.913,75.8624 314.246,76.5291 312.5,77C 298.837,77.4999 285.171,77.6666 271.5,77.5C 271.5,60.1667 271.5,42.8333 271.5,25.5 Z"/></g>
<g><path style="opacity:1" fill="#020202" d="M 332.5,25.5 C 336.167,25.5 339.833,25.5 343.5,25.5C 343.333,37.1714 343.5,48.8381 344,60.5C 353.5,49 363,37.5 372.5,26C 376.486,25.5012 380.486,25.3345 384.5,25.5C 384.5,42.8333 384.5,60.1667 384.5,77.5C 380.833,77.5 377.167,77.5 373.5,77.5C 373.667,65.4954 373.5,53.4954 373,41.5C 363.12,53.0444 353.62,64.8778 344.5,77C 340.514,77.4988 336.514,77.6655 332.5,77.5C 332.5,60.1667 332.5,42.8333 332.5,25.5 Z"/></g>
<g><path style="opacity:1" fill="#040404" d="M 396.5,25.5 C 400.167,25.5 403.833,25.5 407.5,25.5C 407.169,32.8635 407.503,40.1968 408.5,47.5C 409.107,47.3764 409.44,47.0431 409.5,46.5C 416.662,39.5049 423.996,32.6716 431.5,26C 436.202,25.1717 440.869,25.3384 445.5,26.5C 438.5,32.8333 431.833,39.5 425.5,46.5C 433.943,57.1123 442.943,67.279 452.5,77C 447.5,77.6667 442.5,77.6667 437.5,77C 431.009,69.1828 424.176,61.6828 417,54.5C 407.98,59.5274 404.814,67.194 407.5,77.5C 403.833,77.5 400.167,77.5 396.5,77.5C 396.5,60.1667 396.5,42.8333 396.5,25.5 Z"/></g>
<g><path style="opacity:1" fill="#030303" d="M 510.5,25.5 C 510.5,42.8333 510.5,60.1667 510.5,77.5C 506.833,77.5 503.167,77.5 499.5,77.5C 499.667,65.4954 499.5,53.4954 499,41.5C 489.167,53.3333 479.333,65.1667 469.5,77C 465.848,77.4986 462.182,77.6653 458.5,77.5C 458.5,60.1667 458.5,42.8333 458.5,25.5C 462.167,25.5 465.833,25.5 469.5,25.5C 469.333,37.1714 469.5,48.8381 470,60.5C 479.5,49 489,37.5 498.5,26C 502.486,25.5012 506.486,25.3345 510.5,25.5 Z"/></g>
<g><path style="opacity:1" fill="#a421f8" d="M 98.5,15.5 C 100.129,16.6253 101.629,17.9586 103,19.5C 107.905,28.5121 107.405,37.1788 101.5,45.5C 85.2223,53.3661 68.889,61.0328 52.5,68.5C 57.2911,62.3588 58.7911,55.3588 57,47.5C 55.197,43.5225 52.697,40.1892 49.5,37.5C 50.0906,36.8485 50.7573,36.1818 51.5,35.5C 47.7451,33.7204 48.0785,32.8871 52.5,33C 55.7514,36.1708 56.0847,35.8374 53.5,32C 54.9733,31.2904 55.6399,30.1238 55.5,28.5C 58.2469,28.8134 60.9135,28.48 63.5,27.5C 67.5073,26.4817 70.174,24.1484 71.5,20.5C 76.2697,20.3084 80.9364,19.475 85.5,18C 87.1066,16.951 87.7733,15.451 87.5,13.5C 84.8589,14.2631 82.1922,14.4298 79.5,14C 81.2244,13.5518 81.891,12.7185 81.5,11.5C 84.777,12.2537 88.1103,12.7537 91.5,13C 88.9244,14.3834 89.2577,15.2167 92.5,15.5C 94.6213,14.6013 96.6213,14.6013 98.5,15.5 Z"/></g>
<g><path style="opacity:1" fill="#2ae6a6" d="M -0.5,22.5 C -0.166667,22.5 0.166667,22.5 0.5,22.5C 11.5725,25.201 22.5725,28.201 33.5,31.5C 39.2486,32.5255 44.5819,34.5255 49.5,37.5C 52.697,40.1892 55.197,43.5225 57,47.5C 58.7911,55.3588 57.2911,62.3588 52.5,68.5C 49.7683,69.9887 46.7683,70.6554 43.5,70.5C 38.0177,70.1275 32.6843,69.1275 27.5,67.5C 27.5,76.5 27.5,85.5 27.5,94.5C 18.0275,92.4652 8.69418,90.1319 -0.5,87.5C -0.5,65.8333 -0.5,44.1667 -0.5,22.5 Z"/></g>
<g><path style="opacity:1" fill="#a1a1a1" d="M 396.5,25.5 C 400.298,24.5166 404.298,24.1832 408.5,24.5C 408.175,32.0191 408.508,39.3524 409.5,46.5C 409.44,47.0431 409.107,47.3764 408.5,47.5C 407.503,40.1968 407.169,32.8635 407.5,25.5C 403.833,25.5 400.167,25.5 396.5,25.5 Z"/></g>
<g><path style="opacity:1" fill="#6f6f6f" d="M 191.5,25.5 C 179.167,25.5 166.833,25.5 154.5,25.5C 154.5,42.8333 154.5,60.1667 154.5,77.5C 153.503,60.0079 153.17,42.3412 153.5,24.5C 166.344,24.1713 179.011,24.5046 191.5,25.5 Z"/></g>
<g><path style="opacity:1" fill="#fafafa" d="M 165.5,34.5 C 173.174,34.3336 180.841,34.5003 188.5,35C 196.052,39.5348 196.385,44.5348 189.5,50C 181.507,50.4997 173.507,50.6664 165.5,50.5C 165.5,45.1667 165.5,39.8333 165.5,34.5 Z"/></g>
<g><path style="opacity:1" fill="#f2f2f2" d="M 282.5,34.5 C 290.84,34.3336 299.173,34.5003 307.5,35C 311.5,38.6667 311.5,42.3333 307.5,46C 299.173,46.4997 290.84,46.6664 282.5,46.5C 282.5,42.5 282.5,38.5 282.5,34.5 Z"/></g>
<g><path style="opacity:1" fill="#6e06c5" d="M 101.5,45.5 C 107.676,54.0877 108.009,62.921 102.5,72C 84.3538,81.5308 66.0204,90.3641 47.5,98.5C 44.8333,98.5 42.1667,98.5 39.5,98.5C 35.5,97.1667 31.5,95.8333 27.5,94.5C 27.5,85.5 27.5,76.5 27.5,67.5C 32.6843,69.1275 38.0177,70.1275 43.5,70.5C 46.7683,70.6554 49.7683,69.9887 52.5,68.5C 68.889,61.0328 85.2223,53.3661 101.5,45.5 Z"/></g>
<g><path style="opacity:1" fill="#fafafa" d="M 283.5,54.5 C 292.608,54.0568 301.608,54.5568 310.5,56C 312.478,58.4973 312.978,61.3307 312,64.5C 310.871,66.1412 309.371,67.1412 307.5,67.5C 299.5,67.5 291.5,67.5 283.5,67.5C 283.5,63.1667 283.5,58.8333 283.5,54.5 Z"/></g>
<g><path style="opacity:1" fill="#797979" d="M 283.5,54.5 C 283.5,58.8333 283.5,63.1667 283.5,67.5C 291.5,67.5 299.5,67.5 307.5,67.5C 299.35,68.4927 291.017,68.8261 282.5,68.5C 282.181,63.6367 282.514,58.97 283.5,54.5 Z"/></g>
<g><path style="opacity:1" fill="#fbfcfd" d="M -0.5,87.5 C 8.69418,90.1319 18.0275,92.4652 27.5,94.5C 31.5,95.8333 35.5,97.1667 39.5,98.5C 26.1667,98.5 12.8333,98.5 -0.5,98.5C -0.5,94.8333 -0.5,91.1667 -0.5,87.5 Z"/></g>
</svg>
