<?xml version="1.0" encoding="UTF-8"?>
<!DOCTYPE svg PUBLIC "-//W3C//DTD SVG 1.1//EN" "http://www.w3.org/Graphics/SVG/1.1/DTD/svg11.dtd">
<svg xmlns="http://www.w3.org/2000/svg" version="1.1" width="928px" height="180px" style="shape-rendering:geometricPrecision; text-rendering:geometricPrecision; image-rendering:optimizeQuality; fill-rule:evenodd; clip-rule:evenodd" xmlns:xlink="http://www.w3.org/1999/xlink">
<g><path style="opacity:0.995" fill="#640bb5" d="M 86.5,-0.5 C 88.8333,-0.5 91.1667,-0.5 93.5,-0.5C 98.9308,1.61198 104.597,3.27864 110.5,4.5C 108.49,7.0275 105.823,8.86083 102.5,10C 75.8365,21.6682 49.5031,33.8349 23.5,46.5C 15.4226,44.814 7.42261,42.814 -0.5,40.5C -0.5,40.1667 -0.5,39.8333 -0.5,39.5C 28.6839,26.4056 57.6839,13.0723 86.5,-0.5 Z"/></g>
<g><path style="opacity:0.993" fill="#7010c2" d="M 110.5,4.5 C 118.306,6.66002 125.973,8.99335 133.5,11.5C 104.645,25.0748 75.6449,38.5748 46.5,52C 47.056,52.3826 47.3893,52.8826 47.5,53.5C 39.3101,51.4566 31.3101,49.1233 23.5,46.5C 49.5031,33.8349 75.8365,21.6682 102.5,10C 105.823,8.86083 108.49,7.0275 110.5,4.5 Z"/></g>
<g><path style="opacity:0.995" fill="#7c14cf" d="M 133.5,11.5 C 140.244,12.8527 146.911,14.5193 153.5,16.5C 125.302,30.1785 96.8022,43.5119 68,56.5C 66.9701,56.8361 66.4701,57.5028 66.5,58.5C 60.111,57.0369 53.7777,55.3702 47.5,53.5C 47.3893,52.8826 47.056,52.3826 46.5,52C 75.6449,38.5748 104.645,25.0748 133.5,11.5 Z"/></g>
<g><path style="opacity:0.996" fill="#8a18dd" d="M 153.5,16.5 C 163.083,18.2423 171.75,21.909 179.5,27.5C 177.49,30.0275 174.823,31.8608 171.5,33C 145.381,44.5593 119.381,56.3927 93.5,68.5C 92.7025,68.9569 92.3691,69.6236 92.5,70.5C 84.8579,64.3918 76.1912,60.3918 66.5,58.5C 66.4701,57.5028 66.9701,56.8361 68,56.5C 96.8022,43.5119 125.302,30.1785 153.5,16.5 Z"/></g>
<g><path style="opacity:0.997" fill="#9a1dee" d="M 179.5,27.5 C 183.957,30.6187 187.291,34.6187 189.5,39.5C 161.193,52.319 132.859,65.1524 104.5,78C 102.574,78.4224 101.574,79.5891 101.5,81.5C 98.8782,77.5428 95.8782,73.8761 92.5,70.5C 92.3691,69.6236 92.7025,68.9569 93.5,68.5C 119.381,56.3927 145.381,44.5593 171.5,33C 174.823,31.8608 177.49,30.0275 179.5,27.5 Z"/></g>
<g><path style="opacity:0.996" fill="#28e5a5" d="M -0.5,40.5 C 7.42261,42.814 15.4226,44.814 23.5,46.5C 31.3101,49.1233 39.3101,51.4566 47.5,53.5C 53.7777,55.3702 60.111,57.0369 66.5,58.5C 76.1912,60.3918 84.8579,64.3918 92.5,70.5C 95.8782,73.8761 98.8782,77.5428 101.5,81.5C 107.709,95.5081 106.709,108.841 98.5,121.5C 93.0794,126.59 86.5794,129.257 79,129.5C 69.4646,127.265 59.9646,124.932 50.5,122.5C 50.5,139.5 50.5,156.5 50.5,173.5C 33.6476,168.37 16.6476,163.703 -0.5,159.5C -0.5,119.833 -0.5,80.1667 -0.5,40.5 Z"/></g>
<g><path style="opacity:0.963" fill="#000000" d="M 279.5,45.5 C 302.502,45.3334 325.502,45.5 348.5,46C 364.485,50.6218 372.485,61.2884 372.5,78C 371.97,94.8538 363.637,105.52 347.5,110C 332.17,110.5 316.837,110.667 301.5,110.5C 301.5,120.833 301.5,131.167 301.5,141.5C 294.167,141.5 286.833,141.5 279.5,141.5C 279.5,109.5 279.5,77.5 279.5,45.5 Z M 301.5,63.5 C 314.504,63.3334 327.504,63.5001 340.5,64C 351.165,67.831 354.331,74.9977 350,85.5C 348.337,87.9167 346.171,89.75 343.5,91C 329.551,92.4087 315.551,92.9087 301.5,92.5C 301.5,82.8333 301.5,73.1667 301.5,63.5 Z"/></g>
<g><path style="opacity:0.939" fill="#000000" d="M 374.5,45.5 C 383.192,45.1686 391.859,45.502 400.5,46.5C 410.14,62.126 420.14,77.4593 430.5,92.5C 440.196,77.4524 449.529,62.1191 458.5,46.5C 466.5,45.1667 474.5,45.1667 482.5,46.5C 464.167,77.8333 445.833,109.167 427.5,140.5C 419.5,141.833 411.5,141.833 403.5,140.5C 408.374,131.918 413.374,123.418 418.5,115C 403.188,92.199 388.521,69.0323 374.5,45.5 Z"/></g>
<g><path style="opacity:0.948" fill="#000000" d="M 492.5,45.5 C 516.836,45.3334 541.169,45.5 565.5,46C 581.491,52.1463 587.324,63.6463 583,80.5C 581.46,84.4192 579.293,87.9192 576.5,91C 589.78,103.076 591.947,116.909 583,132.5C 579.395,136.721 574.895,139.554 569.5,141C 543.877,142.453 518.21,142.953 492.5,142.5C 492.5,110.167 492.5,77.8333 492.5,45.5 Z M 514.5,63.5 C 528.171,63.3334 541.837,63.5001 555.5,64C 563.412,66.605 565.579,71.7716 562,79.5C 560.786,81.0488 559.286,82.2155 557.5,83C 543.171,83.4999 528.837,83.6666 514.5,83.5C 514.5,76.8333 514.5,70.1667 514.5,63.5 Z M 514.5,100.5 C 529.837,100.333 545.17,100.5 560.5,101C 567.94,105.623 569.44,111.789 565,119.5C 562.932,121.562 560.432,122.728 557.5,123C 543.171,123.5 528.837,123.667 514.5,123.5C 514.5,115.833 514.5,108.167 514.5,100.5 Z"/></g>
<g><path style="opacity:0.954" fill="#000000" d="M 603.5,45.5 C 610.833,45.5 618.167,45.5 625.5,45.5C 625.333,66.8359 625.5,88.1693 626,109.5C 642.833,88.5 659.667,67.5 676.5,46.5C 684.138,45.5025 691.804,45.1692 699.5,45.5C 699.5,77.5 699.5,109.5 699.5,141.5C 692.167,141.5 684.833,141.5 677.5,141.5C 677.667,120.164 677.5,98.8307 677,77.5C 660.167,98.5 643.333,119.5 626.5,140.5C 618.862,141.497 611.196,141.831 603.5,141.5C 603.5,109.5 603.5,77.5 603.5,45.5 Z"/></g>
<g><path style="opacity:0.946" fill="#000000" d="M 719.5,45.5 C 726.833,45.5 734.167,45.5 741.5,45.5C 741.167,58.85 741.501,72.1833 742.5,85.5C 756.651,72.5164 770.651,59.3498 784.5,46C 794.167,45.3333 803.833,45.3333 813.5,46C 800.167,58.6667 786.833,71.3333 773.5,84C 789.647,102.981 805.98,121.814 822.5,140.5C 813.184,141.665 803.851,141.832 794.5,141C 782.04,127.22 769.706,113.387 757.5,99.5C 752.181,104.318 747.015,109.318 742,114.5C 741.5,123.494 741.334,132.494 741.5,141.5C 734.167,141.5 726.833,141.5 719.5,141.5C 719.5,109.5 719.5,77.5 719.5,45.5 Z"/></g>
<g><path style="opacity:0.95" fill="#000000" d="M 927.5,45.5 C 927.5,77.5 927.5,109.5 927.5,141.5C 920.167,141.5 912.833,141.5 905.5,141.5C 905.667,120.497 905.5,99.4974 905,78.5C 888.356,99.3117 871.523,119.978 854.5,140.5C 846.862,141.497 839.196,141.831 831.5,141.5C 831.5,109.5 831.5,77.5 831.5,45.5C 838.833,45.5 846.167,45.5 853.5,45.5C 853.333,66.8359 853.5,88.1693 854,109.5C 871.167,88.3333 888.333,67.1667 905.5,46C 912.826,45.5003 920.159,45.3337 927.5,45.5 Z"/></g>
<g><path style="opacity:0.994" fill="#a822fd" d="M 189.5,39.5 C 194.99,50.034 195.823,61.034 192,72.5C 190.569,76.3738 188.403,79.7072 185.5,82.5C 157.536,96.7292 129.036,110.062 100,122.5C 99.2352,122.43 98.7352,122.097 98.5,121.5C 106.709,108.841 107.709,95.5081 101.5,81.5C 101.574,79.5891 102.574,78.4224 104.5,78C 132.859,65.1524 161.193,52.319 189.5,39.5 Z"/></g>
<g><path style="opacity:0.989" fill="#6e00c6" d="M 185.5,82.5 C 195.733,97.1585 196.899,112.492 189,128.5C 186.5,131 184,133.5 181.5,136C 150.456,151.358 119.123,165.858 87.5,179.5C 83.1667,179.5 78.8333,179.5 74.5,179.5C 66.6868,177.213 58.6868,175.213 50.5,173.5C 50.5,156.5 50.5,139.5 50.5,122.5C 59.9646,124.932 69.4646,127.265 79,129.5C 86.5794,129.257 93.0794,126.59 98.5,121.5C 98.7352,122.097 99.2352,122.43 100,122.5C 129.036,110.062 157.536,96.7292 185.5,82.5 Z"/></g>
</svg>
