<?xml version="1.0" encoding="UTF-8"?>
<!DOCTYPE svg PUBLIC "-//W3C//DTD SVG 1.1//EN" "http://www.w3.org/Graphics/SVG/1.1/DTD/svg11.dtd">
<svg xmlns="http://www.w3.org/2000/svg" version="1.1" width="533px" height="110px" style="shape-rendering:geometricPrecision; text-rendering:geometricPrecision; image-rendering:optimizeQuality; fill-rule:evenodd; clip-rule:evenodd" xmlns:xlink="http://www.w3.org/1999/xlink">
<g><path style="opacity:0.873" fill="#00c48b" d="M 512.5,-0.5 C 516.167,-0.5 519.833,-0.5 523.5,-0.5C 529.124,2.42029 531.291,7.08696 530,13.5C 529.215,15.286 528.049,16.786 526.5,18C 529.122,20.109 531.122,22.609 532.5,25.5C 532.5,27.1667 532.5,28.8333 532.5,30.5C 530.561,36.7555 526.228,40.0888 519.5,40.5C 516.613,40.373 514.113,39.373 512,37.5C 511.501,41.4862 511.334,45.4862 511.5,49.5C 509.167,49.5 506.833,49.5 504.5,49.5C 504.333,35.8293 504.5,22.1626 505,8.5C 505.923,4.08561 508.423,1.08561 512.5,-0.5 Z M 515.5,5.5 C 522.17,5.37782 524.17,8.21115 521.5,14C 519.655,15.128 517.655,15.628 515.5,15.5C 515.5,17.5 515.5,19.5 515.5,21.5C 523.085,21.0742 525.752,24.4076 523.5,31.5C 520.326,33.9694 516.993,34.136 513.5,32C 512.874,31.2496 512.374,30.4162 512,29.5C 511.333,22.8333 511.333,16.1667 512,9.5C 512.69,7.64977 513.856,6.31643 515.5,5.5 Z"/></g>
<g><path style="opacity:0.995" fill="#b951fa" d="M 127.5,20.5 C 109.815,26.5948 91.8147,32.0948 73.5,37C 70.5184,37.498 67.5184,37.6646 64.5,37.5C 60.2138,36.2934 55.8805,35.2934 51.5,34.5C 34.4418,29.3194 17.4418,23.986 0.5,18.5C 20.7729,12.6315 41.1062,6.96482 61.5,1.5C 83.6991,7.2157 105.699,13.549 127.5,20.5 Z"/></g>
<g><path style="opacity:0.925" fill="#000000" d="M 167.5,25.5 C 178.555,25.1209 189.555,25.6209 200.5,27C 206.157,28.7829 209.657,32.6162 211,38.5C 214.396,53.5802 208.563,62.0802 193.5,64C 188.511,64.4993 183.511,64.6659 178.5,64.5C 178.5,70.8333 178.5,77.1667 178.5,83.5C 174.833,83.5 171.167,83.5 167.5,83.5C 167.5,64.1667 167.5,44.8333 167.5,25.5 Z M 178.5,36.5 C 183.844,36.334 189.177,36.5006 194.5,37C 199.224,39.4353 200.724,43.2686 199,48.5C 198.535,49.9308 197.701,51.0975 196.5,52C 190.593,53.3608 184.593,53.8608 178.5,53.5C 178.5,47.8333 178.5,42.1667 178.5,36.5 Z"/></g>
<g><path style="opacity:0.874" fill="#000000" d="M 214.5,25.5 C 218.884,25.1744 223.217,25.5078 227.5,26.5C 231.384,35.6618 235.551,44.6618 240,53.5C 244.167,44.5 248.333,35.5 252.5,26.5C 256.795,25.3391 261.129,25.1725 265.5,26C 256.644,44.8787 247.644,63.712 238.5,82.5C 234.167,83.8333 229.833,83.8333 225.5,82.5C 228.039,77.2549 230.706,72.0883 233.5,67C 226.473,53.4479 220.139,39.6146 214.5,25.5 Z"/></g>
<g><path style="opacity:0.904" fill="#000000" d="M 269.5,25.5 C 278.506,25.3336 287.506,25.5002 296.5,26C 307.921,28.6537 312.421,35.8204 310,47.5C 308.833,49.3333 307.667,51.1667 306.5,53C 314.364,60.0454 315.531,68.2121 310,77.5C 308.269,79.6166 306.102,81.1166 303.5,82C 292.221,83.3833 280.888,83.8833 269.5,83.5C 269.5,64.1667 269.5,44.8333 269.5,25.5 Z M 281.5,36.5 C 285.846,36.3343 290.179,36.501 294.5,37C 298.213,38.6912 299.379,41.5245 298,45.5C 297.25,46.1258 296.416,46.6258 295.5,47C 290.845,47.4992 286.179,47.6658 281.5,47.5C 281.5,43.8333 281.5,40.1667 281.5,36.5 Z M 281.5,58.5 C 286.511,58.3341 291.511,58.5007 296.5,59C 303.059,63.2451 303.059,67.5784 296.5,72C 291.511,72.4993 286.511,72.6659 281.5,72.5C 281.5,67.8333 281.5,63.1667 281.5,58.5 Z"/></g>
<g><path style="opacity:0.899" fill="#000000" d="M 320.5,25.5 C 324.5,25.5 328.5,25.5 332.5,25.5C 332.333,37.1714 332.5,48.8381 333,60.5C 340.71,48.9134 348.543,37.4134 356.5,26C 360.486,25.5012 364.486,25.3345 368.5,25.5C 368.5,44.8333 368.5,64.1667 368.5,83.5C 364.5,83.5 360.5,83.5 356.5,83.5C 356.667,71.4954 356.5,59.4954 356,47.5C 348.085,58.9955 340.418,70.6622 333,82.5C 328.934,83.4637 324.767,83.797 320.5,83.5C 320.5,64.1667 320.5,44.8333 320.5,25.5 Z"/></g>
<g><path style="opacity:0.893" fill="#000000" d="M 378.5,25.5 C 382.167,25.5 385.833,25.5 389.5,25.5C 389.334,33.1739 389.5,40.8406 390,48.5C 396.833,41 403.667,33.5 410.5,26C 415.202,25.1717 419.869,25.3384 424.5,26.5C 417.018,35.1493 409.352,43.6493 401.5,52C 409.644,62.312 417.978,72.4787 426.5,82.5C 421.5,83.8333 416.5,83.8333 411.5,82.5C 405.727,75.2735 399.727,68.2735 393.5,61.5C 392.186,62.3128 391.019,63.3128 390,64.5C 389.5,70.8246 389.334,77.1579 389.5,83.5C 385.833,83.5 382.167,83.5 378.5,83.5C 378.5,64.1667 378.5,44.8333 378.5,25.5 Z"/></g>
<g><path style="opacity:0.923" fill="#000000" d="M 431.5,25.5 C 435.167,25.5 438.833,25.5 442.5,25.5C 442.333,37.5046 442.5,49.5046 443,61.5C 450.833,49.8333 458.667,38.1667 466.5,26.5C 470.445,25.5091 474.445,25.1758 478.5,25.5C 478.5,44.8333 478.5,64.1667 478.5,83.5C 474.5,83.5 470.5,83.5 466.5,83.5C 466.667,71.8286 466.5,60.1619 466,48.5C 458.696,59.969 451.196,71.3023 443.5,82.5C 439.555,83.4909 435.555,83.8242 431.5,83.5C 431.5,64.1667 431.5,44.8333 431.5,25.5 Z"/></g>
<g><path style="opacity:1" fill="#6adebd" d="M -0.5,18.5 C -0.166667,18.5 0.166667,18.5 0.5,18.5C 17.4418,23.986 34.4418,29.3194 51.5,34.5C 49.1516,34.3305 46.8183,33.9971 44.5,33.5C 29.5142,36.6305 14.5142,39.6305 -0.5,42.5C -0.5,34.5 -0.5,26.5 -0.5,18.5 Z"/></g>
<g><path style="opacity:1" fill="#a03edd" d="M 127.5,20.5 C 130.543,22.1757 132.877,24.5091 134.5,27.5C 113.828,33.1688 93.1613,38.8355 72.5,44.5C 69.8333,42.1667 67.1667,39.8333 64.5,37.5C 67.5184,37.6646 70.5184,37.498 73.5,37C 91.8147,32.0948 109.815,26.5948 127.5,20.5 Z"/></g>
<g><path style="opacity:0.989" fill="#9032ca" d="M 134.5,27.5 C 138.11,31.3964 140.11,36.0631 140.5,41.5C 121.563,47.0887 102.563,52.5887 83.5,58C 81.0935,58.2572 79.4268,59.4238 78.5,61.5C 79.0376,56.7646 78.0376,52.4313 75.5,48.5C 74.5,47.1667 73.5,45.8333 72.5,44.5C 93.1613,38.8355 113.828,33.1688 134.5,27.5 Z"/></g>
<g><path style="opacity:1" fill="#31d2a4" d="M 51.5,34.5 C 55.8805,35.2934 60.2138,36.2934 64.5,37.5C 67.1667,39.8333 69.8333,42.1667 72.5,44.5C 73.5,45.8333 74.5,47.1667 75.5,48.5C 50.1176,53.7096 24.7842,59.0429 -0.5,64.5C -0.5,57.1667 -0.5,49.8333 -0.5,42.5C 14.5142,39.6305 29.5142,36.6305 44.5,33.5C 46.8183,33.9971 49.1516,34.3305 51.5,34.5 Z"/></g>
<g><path style="opacity:0.989" fill="#9a3fd7" d="M 140.5,41.5 C 140.392,46.7156 138.392,51.0489 134.5,54.5C 134.863,55.1835 135.196,55.8501 135.5,56.5C 111.086,64.2525 86.4197,71.2525 61.5,77.5C 61.5,87.5 61.5,97.5 61.5,107.5C 61.1667,108.833 60.8333,108.833 60.5,107.5C 60.5,95.8333 60.5,84.1667 60.5,72.5C 65.449,73.0411 70.1156,72.2078 74.5,70C 76.6966,67.5786 78.03,64.7452 78.5,61.5C 79.4268,59.4238 81.0935,58.2572 83.5,58C 102.563,52.5887 121.563,47.0887 140.5,41.5 Z"/></g>
<g><path style="opacity:0.991" fill="#03c991" d="M 75.5,48.5 C 78.0376,52.4313 79.0376,56.7646 78.5,61.5C 78.03,64.7452 76.6966,67.5786 74.5,70C 70.1156,72.2078 65.449,73.0411 60.5,72.5C 60.5,84.1667 60.5,95.8333 60.5,107.5C 40.1157,102.039 19.7823,96.3722 -0.5,90.5C -0.5,81.8333 -0.5,73.1667 -0.5,64.5C 24.7842,59.0429 50.1176,53.7096 75.5,48.5 Z"/></g>
<g><path style="opacity:0.992" fill="#b850f8" d="M 135.5,56.5 C 139.889,60.5097 141.389,65.5097 140,71.5C 136.807,81.3595 130.307,87.8595 120.5,91C 100.896,96.8138 81.2291,102.314 61.5,107.5C 61.5,97.5 61.5,87.5 61.5,77.5C 86.4197,71.2525 111.086,64.2525 135.5,56.5 Z"/></g>
</svg>
